<?xml version="1.0" ?><svg style="enable-background:new 0 0 32 32;" version="1.1" viewBox="0 0 32 32" xml:space="preserve" xmlns="http://www.w3.org/2000/svg" xmlns:xlink="http://www.w3.org/1999/xlink"><style type="text/css">
	.st0{fill:#B9F3F8;}
	.st1{fill:#55C1FA;}
	.st2{fill:#FBC34E;}
	.st3{opacity:0.05;}
	.st4{fill:#FFFFFF;}
	.st5{fill:#7A442A;}
	.st6{fill:#C77C58;}
	.st7{fill:#E4EDF2;}
	.st8{fill:#F25949;}
	.st9{fill:#FA9B55;}
	.st10{fill:#E5A533;}
	.st11{fill:#6FA7AB;}
	.st12{fill:#20A56C;}
	.st13{fill:#F2C09E;}
	.st14{fill:#F4E8D0;}
	.st15{fill:#F2AB38;}
	.st16{fill:#393B3D;}
	.st17{fill:#ACE4E5;}
	.st18{fill:#659899;}
	.st19{fill:#E3FAFC;}
	.st20{fill:#DDF1F2;}
	.st21{fill:#16F293;}
	.st22{fill:#5C3320;}
	.st23{fill:#AD410D;}
	.st24{fill:#8B9CA5;}
	.st25{fill:#B26C50;}
	.st26{fill:#DAE1E5;}
	.st27{fill:#425158;}
	.st28{fill:#829299;}
	.st29{fill:#A5795C;}
	.st30{fill:#7A7468;}
	.st31{fill:#7B3ABF;}
	.st32{fill:#B564FF;}
	.st33{fill:#2B617D;}
</style><g id="Magnifier"/><g id="Gear"/><g id="Home"/><g id="Shield"/><g id="Star"/><g id="Flash"/><g id="Heart"/><g id="Hearts"/><g id="Shopping_Bag"/><g id="Token"/><g id="Warning"/><g id="Warning_B"/><g id="Chat"/><g id="Diamond"/><g id="Hanger"/><g id="Warning_C"/><g id="Potion"/><g id="Hourglass"/><g id="Trophy"/><g id="Bomb"/><g id="Gem"/><g id="Spell_Book"/><g id="User"/><g id="Users"/><g id="Treasure_Chest"/><g id="Treasure_Chest_Open"/><g id="Sack"/><g id="Fishing_Pin"/><g id="Sword"/><g id="Sword_And_Shield"/><g id="Backpack"/><g id="Key"/><g id="Meat"/><g id="Skull"/><g id="Store"/><g id="Helmet"/><g id="Anvil"/><g id="Axe"/><g id="Spear"/><g id="Food"/><g id="Bow"><g><path class="st13" d="M10.541,20.697l-0.117-0.534l-1.912,1.912h0.414c0.552,0,1,0.447,1,1v0.414l1.913-1.913l-0.535-0.118    C10.921,21.375,10.624,21.078,10.541,20.697z"/><path class="st13" d="M12.356,19.644l1.159,0.255l7.597-7.597c-0.215-0.249-0.433-0.495-0.666-0.729    c-0.24-0.24-0.493-0.464-0.749-0.685l-7.597,7.597L12.356,19.644z"/><path class="st13" d="M23.762,9.264c-0.009,0-0.017,0-0.026,0c-0.265,0-0.52-0.105-0.707-0.293    c-0.194-0.194-0.3-0.459-0.292-0.733l0.01-0.399l-1.635,1.635c0.248,0.217,0.497,0.433,0.729,0.666    c0.239,0.239,0.461,0.494,0.684,0.749l1.636-1.636L23.762,9.264z"/><path class="st24" d="M23.029,8.971c0.188,0.188,0.442,0.293,0.707,0.293c0.009,0,0.017,0,0.026,0l0.399-0.01l2.643-0.069    c0.391-0.011,0.739-0.247,0.893-0.606l2.222-5.185c0.161-0.376,0.077-0.812-0.212-1.101c-0.29-0.289-0.726-0.374-1.101-0.212    l-5.184,2.222c-0.359,0.153-0.595,0.502-0.605,0.893l-0.069,2.643l-0.01,0.399C22.729,8.512,22.835,8.776,23.029,8.971z"/><path class="st7" d="M24.982,22.419l-11.466-2.521l-1.159-0.255l-0.255-1.159L9.58,7.017C8.809,6.704,8.007,6.195,7.285,5.346    C7.124,5.252,7.038,4.58,7.07,4.913l3.353,15.25l0.117,0.534c0.083,0.381,0.381,0.678,0.762,0.762l0.535,0.118l15.25,3.353    c0.495,0.074-0.303-0.013-0.433-0.214C25.805,23.994,25.296,23.191,24.982,22.419z"/><path class="st2" d="M8.925,22.075H8.511H5.962c-0.265,0-0.52,0.105-0.707,0.293l-2.962,2.963c-0.245,0.245-0.346,0.6-0.266,0.937    c0.08,0.338,0.328,0.609,0.657,0.719l1.747,0.583l0.583,1.747c0.11,0.329,0.382,0.577,0.719,0.657    c0.334,0.079,0.692-0.021,0.937-0.267l2.962-2.962c0.188-0.188,0.293-0.441,0.293-0.707v-2.549v-0.414    C9.925,22.522,9.477,22.075,8.925,22.075z"/><path class="st6" d="M21.112,9.474c-2.499-2.189-5.747-3.591-9.271-3.959C10.465,5.37,9.558,4.933,8.808,4.051    c-0.848-0.957-2.336,0.3-1.523,1.295C8.007,6.195,8.809,6.704,9.58,7.017c0.75,0.305,1.469,0.425,2.053,0.486    c3.106,0.326,5.865,1.49,8.065,3.385c0.256,0.22,0.508,0.445,0.749,0.685c0.233,0.234,0.451,0.48,0.666,0.729    c1.889,2.189,3.057,4.953,3.383,8.065c0.061,0.584,0.181,1.304,0.486,2.053c0.313,0.771,0.823,1.575,1.672,2.296    c0.987,0.841,2.253-0.688,1.295-1.525c-0.882-0.748-1.319-1.655-1.464-3.033c-0.368-3.514-1.764-6.756-3.96-9.268    c-0.223-0.255-0.445-0.51-0.684-0.749C21.609,9.907,21.36,9.691,21.112,9.474z"/></g></g><g id="Scroll"/><g id="Armor"/><g id="Hat"/><g id="Wand"/><g id="Map"/><g id="Mushroom"/><g id="Feather"/><g id="Wings"/><g id="Fish"/></svg>